<svg xmlns="http://www.w3.org/2000/svg" viewBox="0 0 283.2 144"><defs><style>.cls-3{fill:#fff}</style><linearGradient id="linear-gradient" x1="224.7" x2="231.3" y1="97" y2="97" gradientUnits="userSpaceOnUse"><stop offset="0" stop-color="#fff"/><stop offset="1" stop-color="#fff" stop-opacity="0"/></linearGradient><linearGradient id="linear-gradient-2" x1="237" x2="282.4" y1="95.3" y2="92" gradientTransform="translate(1.2 5)" gradientUnits="userSpaceOnUse"><stop offset="0" stop-color="#fff" stop-opacity="0"/><stop offset=".1" stop-color="#fff" stop-opacity=".1"/><stop offset=".2" stop-color="#fff" stop-opacity=".3"/><stop offset=".3" stop-color="#fff" stop-opacity=".5"/><stop offset=".4" stop-color="#fff" stop-opacity=".7"/><stop offset=".5" stop-color="#fff" stop-opacity=".8"/><stop offset=".6" stop-color="#fff" stop-opacity=".9"/><stop offset=".7" stop-color="#fff" stop-opacity=".9"/><stop offset=".8" stop-color="#fff"/><stop offset="1" stop-color="#fff"/></linearGradient></defs><path fill="#ef3730" d="M139.2 0h144v144h-144z"/><path fill="url(#linear-gradient)" d="M205 93c.2 3.2 6.2 6 15.6 7.2a59.8 59.8 0 0 0 6.3.6l4.4.2v-.7l-4.9-.2a40 40 0 0 1-4.6-.4c-10.4-1.3-15.8-4.3-16-6.7z" transform="translate(-49.6 -27)"/><path d="M314.4 86c-.1-3-5.8-5-17-6.3a176.4 176.4 0 0 0-18.8-.9c-6.2 0-12.8.2-19.6.7a250.9 250.9 0 0 0-34.3 4.5l-2.5.6-1.3.4c-7.3 1.7-16 4.6-15.8 8h.8c-.1-2.2 5.5-5 15.2-7.3l2.3-.5 1.5-.3a251.8 251.8 0 0 1 34.2-4.2c6.1-.4 12.2-.6 18-.6a187.6 187.6 0 0 1 20.1 1c11.2 1.2 15.2 3.4 15.3 5z" class="cls-3" transform="translate(-49.6 -27)"/><path d="M246.7 71.8h-25.5l-11.5 45.8h25.8l1.7-7.1h-17.1l3.3-13.1H238l1.8-7H225l2.8-11.4h17l1.8-7.2zm-2.6-11.3c-1 0-2 .6-3.8 1.6h-.2l-9 5.5-1.3.8h1.5l2 .3h.1l10.3-3.2c1.2-.3 2.4-.7 2.8-2a2.3 2.3 0 0 0-.3-1.8 2.3 2.3 0 0 0-1.3-1 2.7 2.7 0 0 0-.8-.1zm16.1 40.8l-4.5.3h-1.3l-2.6 10.8h8.5l2.8-11.4-3 .3zm-9.9-34.6l-1.8 7h12.9L261 75l-5.8 23.5 1.3-.1 3.4-.3 4-.3 5.9-24h12l1.5-5.9.3-1.1zm59.6-.2a21 21 0 0 0-10.9-3 14.9 14.9 0 0 0-10.9 4.2 13.4 13.4 0 0 0-3.8 9.3 13.2 13.2 0 0 0 4 9.3 41.8 41.8 0 0 0 3.1 3 24 24 0 0 1 2.8 2.9 10 10 0 0 1 .6.9h.1l2.8-.7 5.5-1.6a15 15 0 0 0-1.5-2.3 32.8 32.8 0 0 0-2.6-2.8l-1.4-1.3a28.3 28.3 0 0 1-2.1-2 8.3 8.3 0 0 1-2.7-5.6 6.4 6.4 0 0 1 6.7-6.4 11.9 11.9 0 0 1 8 3.5l.7.6.2-.8 1.6-6.5V67l.1-.3zm-5.6 27.3a87.9 87.9 0 0 1-7.7 2.2l-.7.2a7.7 7.7 0 0 1 0 .9c0 3.7-2.3 7.4-7.6 7.4-3.5 0-6.8-1.5-9.9-4.5l-.6-.5-.2.8-1.7 7-.1.4.3.2.8.5a24 24 0 0 0 11.9 3c10.4 0 15.9-7.3 15.9-14.5a13.7 13.7 0 0 0-.4-3z" class="cls-3" transform="translate(-49.6 -27)"/><path fill="url(#linear-gradient-2)" d="M312.5 86.1c0 1-3 3.7-14.7 6.7-10 2.6-23.5 4.6-37.8 5.7l-19.3 1.3h-.2l-.3 2.3h.2c3.1-.1 16.4-1 19.7-1.3a270.8 270.8 0 0 0 28.6-3.6c3.4-.7 6.7-1.4 9.7-2.2 11-2.8 16.2-5.7 16-9z" transform="translate(-49.6 -27)"/><path d="M201.6 137h-5.1v-9.1h1.2v8.2h4.4zm5.6 0a4.5 4.5 0 0 1-1.4.1 3 3 0 0 1-3.4-3.3c0-2 1.3-3.3 3-3.3a2.5 2.5 0 0 1 2 1 4.1 4.1 0 0 1 .6 2.2h-4.4a2.7 2.7 0 0 0 .6 1.9 2.5 2.5 0 0 0 1.9.6 4.8 4.8 0 0 0 1.7-.3zm-.4-4.1a1.8 1.8 0 0 0-.4-1.2 1.5 1.5 0 0 0-1-.4 1.7 1.7 0 0 0-1.7 1.6zm9.7 3.7a4.2 4.2 0 0 1-1.1.1 2.8 2.8 0 0 1-3-3 3.2 3.2 0 0 1 3.4-3.3 5.7 5.7 0 0 1 2.4.5v5.2a3.5 3.5 0 0 1-.4 2 3 3 0 0 1-2.8 1.5 4.7 4.7 0 0 1-2.3-.6v-1.1a2.6 2.6 0 0 0 .7.4 4.2 4.2 0 0 0 1.6.4 1.8 1.8 0 0 0 1.9-1.2 5.2 5.2 0 0 0 .2-1.8zm.6-5a3.9 3.9 0 0 0-1.3-.3 2.1 2.1 0 0 0-2.2 2.3 2 2 0 0 0 2 2.3 3.5 3.5 0 0 0 1.5-.4zm7 5.4a4.4 4.4 0 0 1-1.4.1 3 3 0 0 1-3.3-3.3c0-2 1.2-3.3 2.9-3.3a2.5 2.5 0 0 1 2 1 4.1 4.1 0 0 1 .6 2.2h-4.4a2.7 2.7 0 0 0 .6 1.9 2.5 2.5 0 0 0 1.9.6 4.8 4.8 0 0 0 1.7-.3zm-.4-4.1a1.7 1.7 0 0 0-.4-1.2 1.5 1.5 0 0 0-1-.4 1.7 1.7 0 0 0-1.7 1.6zm-2.3-3.1v-.9l2.4-1v1zm4.6 7.2v-6.4h1v1l.7-1a4.2 4.2 0 0 1 1.4-.1 2.5 2.5 0 0 1 1.6.5 2.1 2.1 0 0 1 .6 1.8v4.2h-1v-3.8c0-1-.3-1.8-1.6-1.8a3.2 3.2 0 0 0-1.7.5v5zm8-8.6a.6.6 0 0 1-.5.6.6.6 0 0 1-.7-.6.6.6 0 1 1 1.3 0zm0 8.6h-1v-6.4h1zm6 0a4.4 4.4 0 0 1-1.5.1 3 3 0 0 1-3.3-3.3c0-2 1.2-3.3 3-3.3a2.5 2.5 0 0 1 2 1 4.1 4.1 0 0 1 .5 2.2h-4.3a2.7 2.7 0 0 0 .5 1.9 2.5 2.5 0 0 0 1.9.6 4.8 4.8 0 0 0 1.7-.3zm-.4-4.1a1.7 1.7 0 0 0-.5-1.2 1.5 1.5 0 0 0-1-.4 1.7 1.7 0 0 0-1.7 1.6zm7.6-2.3a3.3 3.3 0 0 1 1-.2 3 3 0 0 1 3.1 3.3c0 2-1.2 3.4-3.1 3.4a3.2 3.2 0 0 1-1.6-.3v3h-1v-9.2h1v1zm-.6 5.2a2.5 2.5 0 0 0 1.4.4c1.5 0 2.1-1.1 2.1-2.5a2.6 2.6 0 0 0-.4-1.7 2 2 0 0 0-1.6-.7 3.3 3.3 0 0 0-1.5.4zm8.4 1.3c-1.7 0-2.9-1.2-2.9-3.2s1.1-3.4 3-3.4c1.8 0 3 1.3 3 3.3s-1.2 3.3-3 3.3zm1.9-3.3c0-1.2-.5-2.5-1.8-2.5-1.1 0-1.8 1-1.8 2.5a3 3 0 0 0 .4 1.7 1.6 1.6 0 0 0 1.4.8c1.2 0 1.8-1.4 1.8-2.5zm7.7 3.2h-1.1v-1l-.7 1a4.4 4.4 0 0 1-1.3.1 2 2 0 0 1-2.3-2.3v-4.2h1.1v3.8c0 1 .2 1.8 1.5 1.8a3.2 3.2 0 0 0 1.7-.5v-5.1h1.1zm2.7 0h-1.1v-6.4h1.1v1l.6-.9a2.8 2.8 0 0 1 1.1-.2 1.7 1.7 0 0 1 .8.1v1a2.3 2.3 0 0 0-1-.2 2.6 2.6 0 0 0-1.5.5zm8 0h-1v-9.1h1zm1.8-6.7h-.7l1-2.4h1zm3.7-1.9a.6.6 0 0 1-.6.6.6.6 0 0 1-.7-.6.6.6 0 1 1 1.3 0zm0 8.6h-1.2v-6.4h1.1zm1.5 0v-6.4h1v1l.8-1a4.2 4.2 0 0 1 1.3-.1 2.5 2.5 0 0 1 1.6.5 2.1 2.1 0 0 1 .7 1.8v4.2h-1.1v-3.8c0-1-.2-1.8-1.5-1.8a3.2 3.2 0 0 0-1.7.5v5zm12.4 0h-1.1v-1l-.6 1a3.1 3.1 0 0 1-4.1-3 3.2 3.2 0 0 1 3-3.5 3.5 3.5 0 0 1 1.7.3v-3h1zm-1.1-5.2a3 3 0 0 0-1.5-.4 1.9 1.9 0 0 0-1.2.4 2.7 2.7 0 0 0-.9 2.1 2 2 0 0 0 2 2.3 3.5 3.5 0 0 0 1.6-.3zm8 5.2h-1v-1l-.7 1a4.4 4.4 0 0 1-1.4.1 2 2 0 0 1-2.2-2.3v-4.2h1v3.8c0 1 .3 1.8 1.6 1.8a3.2 3.2 0 0 0 1.6-.5v-5.1h1.1zm3.9-3.6a1.9 1.9 0 0 1 1.4 1.8 2 2 0 0 1-2.2 2 4.3 4.3 0 0 1-1.8-.5v-1a3.6 3.6 0 0 0 .6.3 2.7 2.7 0 0 0 1 .3 1 1 0 0 0 1.2-1c0-.7-.6-1-1-1.1l-.4-.2a1.8 1.8 0 0 1-1.4-1.7 2 2 0 0 1 2.2-1.8 3.2 3.2 0 0 1 1.5.3v1a2 2 0 0 0-1.3-.5c-.9 0-1.2.5-1.2 1s.4.7.8.9zm4.8 3.6a2.7 2.7 0 0 1-.6.1 1.4 1.4 0 0 1-1.2-.5c-.3-.3-.3-.7-.3-1.4v-3.8h-.7l.6-.8h.1v-1.2l1.1-.4v1.6h1.3v.8h-1.3v3.3a5.3 5.3 0 0 0 0 1 .7.7 0 0 0 .8.6 2.1 2.1 0 0 0 .8-.2zm2.4 0h-1.1v-6.4h1v1l.7-.9a2.8 2.8 0 0 1 1.1-.2 1.7 1.7 0 0 1 .7.1v1a2.2 2.2 0 0 0-1-.2 2.6 2.6 0 0 0-1.4.5zm4.3-8.6a.6.6 0 0 1-.6.6.6.6 0 0 1-.6-.6.6.6 0 1 1 1.2 0zm0 8.6h-1.2v-6.4h1.1zm5.9 0a4.4 4.4 0 0 1-1.4.1 3 3 0 0 1-3.4-3.3c0-2 1.3-3.3 3-3.3a2.5 2.5 0 0 1 2 1 4.1 4.1 0 0 1 .6 2.2h-4.4a2.7 2.7 0 0 0 .6 1.9 2.5 2.5 0 0 0 1.8.6 4.8 4.8 0 0 0 1.8-.3zm-.4-4.1a1.7 1.7 0 0 0-.4-1.2 1.5 1.5 0 0 0-1-.4 1.7 1.7 0 0 0-1.7 1.6zM98.2 " class="cls-3" transform="translate(-49.6 -27)"/></svg>
