<?xml version="1.0" encoding="utf-8"?>
<!-- Generator: Adobe Illustrator 23.0.1, SVG Export Plug-In . SVG Version: 6.00 Build 0)  -->
<svg version="1.1" id="Mode_Isolation" xmlns="http://www.w3.org/2000/svg" xmlns:xlink="http://www.w3.org/1999/xlink" x="0px"
	 y="0px" viewBox="0 0 88.6 39" style="enable-background:new 0 0 88.6 39;" xml:space="preserve">
<style type="text/css">
	.st0{fill:#fff;}
</style>
<g>
	<path class="st0" d="M20,14.7l7.5-7.5C24.6,2.8,19.6,0,13,0H5.3L20,14.7z"/>
	<path class="st0" d="M30,24.7c0.3-1.7,0.4-3.5,0.4-5.4c0-2.7-0.3-5.2-0.9-7.5c-0.3-1.2-0.8-2.3-1.3-3.4L21,15.7L30,24.7z"/>
	<polygon class="st0" points="0,18.3 0,28.9 5.3,23.6 	"/>
	<path class="st0" d="M6.3,24.5L0,30.8v7.8H13c2.5,0,4.7-0.3,6.6-0.9L6.3,24.5z"/>
	<path class="st0" d="M3.4,0H0v16.3l21,21c4.7-1.9,7.3-5.7,8.5-10.5c0-0.2,0.1-0.3,0.1-0.5L3.4,0z"/>
	<polygon class="st0" points="54.1,23.1 54.1,15.4 44.8,15.4 44.8,7.7 59.5,7.7 59.5,0 35.6,0 35.6,38.7 59.5,38.7 59.5,30.9 
		44.8,30.9 44.8,23.1 	"/>
	<polygon class="st0" points="64.6,0 64.6,38.7 88.6,38.7 88.6,30.9 73.9,30.9 73.9,0 	"/>
</g>
</svg>
