<svg xmlns="http://www.w3.org/2000/svg" viewBox="0 0 223 48"><path d="M216.465 26.029c-2.044-.786-2.68-1.168-2.68-2.031 0-.818.658-1.306 1.761-1.306 1.818 0 3.18.983 4.379 2.061l2.771-2.955c-1.782-1.914-4.426-3.054-7.094-3.054-3.868 0-6.568 2.241-6.568 5.449 0 3.65 2.827 5.075 5.591 5.987.332.11.639.206.922.295 1.574.495 2.442.768 2.442 1.717 0 .531-.291 1.421-2.231 1.421-1.8 0-3.574-.871-4.552-2.226l-2.81 2.981c1.948 2.204 4.336 3.276 7.298 3.276 4.371 0 7.086-2.115 7.086-5.521.001-3.419-2.385-4.583-6.315-6.094m-22.791-5.476h-.184v-1.496h-4.783V37.33h4.783v-9.509c0-4.201 2.613-4.828 4.171-4.828 2.756 0 3.738 2.285 3.738 4.423v9.914h4.783v-9.858c0-5.47-2.93-8.727-7.84-8.727-3.39 0-4.644 1.755-4.668 1.808M180.028 37.33h4.775V19.058h-4.775V37.33zm5.175-24.275a2.786 2.786 0 01-5.573 0 2.787 2.787 0 015.573 0zm-18.497 20.277c-2.625 0-4.682-2.257-4.682-5.139 0-2.892 2.046-5.157 4.66-5.157 2.901 0 4.696 2.677 4.696 5.157 0 2.834-2.097 5.139-4.674 5.139m4.644 2.395h.222v1.604h4.544V10.669h-4.784v9.894h-.183c-.95-1.135-3.198-1.818-4.72-1.818-5.805 0-8.939 4.869-8.939 9.45 0 3.489 1.508 5.692 2.772 6.926a8.91 8.91 0 006.166 2.523c1.092 0 2.824-.325 4.922-1.917m-20.527-14.53h-.118v-2.141h-4.869V37.33h4.869l-.008-8.226c0-3.298 1.638-5.542 5.764-5.542v-4.818c-2.458.038-4.45.784-5.638 2.453m-13.416 10.169c0 .929-1.947 2.407-4.253 2.407-1.424 0-2.361-.937-2.361-2.105 0-.764.426-2.176 2.899-2.176 1.828 0 3.715.57 3.715.57v1.304zm1.889-11.293c-1.283-.845-3.064-1.329-4.889-1.329-3.012 0-5.484 1.081-6.968 3.047.324.352 2.384 2.533 2.784 2.949.75-1.046 1.466-1.587 2.526-1.917a4.26 4.26 0 011.278-.186c.581 0 1.164.105 1.599.29 1.131.479 1.781 1.417 1.781 2.573l-.001 1.192c-.132-.066-1.627-.701-4.048-.701-3.855 0-6.76 2.541-6.76 5.909 0 3.328 2.499 5.743 5.943 5.743 2.146 0 3.481-.943 4.659-1.917h.207v1.604h4.533V25.383c0-2.367-.889-4.153-2.644-5.31zm-20.792 24.353c3.146 0 5.273-2.159 5.273-6.458v-18.91h-4.79v18.714c0 1.659-.679 2.48-1.824 2.48-.554 0-1.09-.161-1.591-.447l-.805 3.979c1.181.463 2.145.642 3.737.642zm5.668-31.372a2.787 2.787 0 01-2.786 2.782 2.787 2.787 0 01-2.786-2.782 2.786 2.786 0 015.572 0zm-14.833 12.975c-2.043-.786-2.679-1.168-2.679-2.031 0-.818.657-1.306 1.76-1.306 1.819 0 3.181.983 4.379 2.061l2.771-2.955c-1.781-1.914-4.426-3.054-7.093-3.054-3.869 0-6.569 2.241-6.569 5.449 0 3.65 2.827 5.075 5.592 5.987.332.11.639.206.921.295 1.574.495 2.442.768 2.442 1.717 0 .531-.29 1.421-2.23 1.421-1.801 0-3.574-.871-4.553-2.226l-2.81 2.981c1.948 2.204 4.336 3.276 7.298 3.276 4.372 0 7.086-2.115 7.086-5.521.001-3.419-2.385-4.583-6.315-6.094m-23.13.294c.543-2.189 2.132-3.395 4.266-3.395 2.084 0 3.563 1.169 4.1 3.395h-8.366zm13.089 1.67c-.032-5.464-3.719-9.248-8.989-9.248-5.261 0-9.08 3.966-9.08 9.431 0 5.574 3.878 9.467 9.431 9.467 3.251 0 6.072-1.193 7.754-3.276-.344-.377-2.472-2.61-2.851-2.991-.881 1.002-2.504 2.047-4.527 2.047-2.425 0-4.255-1.366-4.847-3.709h12.996c.077-.347.113-1.135.113-1.721zm-34.808 4.81h-3.516V15.229h3.76c4.912 0 8.477 3.711 8.477 8.824 0 5.152-3.586 8.75-8.721 8.75m.258-22.133l-9.221-.001V37.33h9.332c8.355 0 13.755-5.214 13.755-13.284.001-8.002-5.572-13.376-13.866-13.376m-28.955 4.579V32.75l-15.187 8.751L5.42 32.75V15.249l15.186-8.751 15.187 8.751zM-.219 12v24l20.825 12 20.826-12V12L20.606 0-.219 12z" fill-rule="evenodd" clip-rule="evenodd" fill="#00874e"/></svg>