<svg xmlns="http://www.w3.org/2000/svg" viewBox="0 0 107.72 39.18"><defs><style>.cls-1{fill:#e60d2e}.cls-2{fill:#fff}</style></defs><title>RioTinto_2017_Red_RGB</title><path class="cls-1" d="M0 0h107.72v39.18H0z" id="Background"/><g id="Wordmark"><path class="cls-2" d="M41 25c-1.54.28-2.73-1.19-3.16-3.64s.21-4.24 1.72-4.51 2.73 1.22 3.16 3.63S42.51 24.76 41 25m-.7-9.36A5.13 5.13 0 0 0 35 21a5.27 5.27 0 1 0 10.54 0 5.14 5.14 0 0 0-5.27-5.3M87.44 25c-1.54.28-2.73-1.19-3.16-3.63s.22-4.25 1.72-4.52 2.74 1.22 3.16 3.63S89 24.76 87.44 25m-.7-9.36A5.13 5.13 0 0 0 81.47 21 5.27 5.27 0 1 0 92 21a5.13 5.13 0 0 0-5.27-5.3M70.7 18.34a3.67 3.67 0 0 1 .17 1.24v6.49h3.84v-.71c-.55 0-1.24-.28-1.24-1.55V19a3.12 3.12 0 0 0-3.3-3.27A3.43 3.43 0 0 0 67 17.47v-1.56h-3.74v.7c.53 0 1.24.28 1.24 1.53v5.68c0 1.26-.71 1.54-1.24 1.54v.71h5.08v-.71c-.55 0-1.25-.28-1.25-1.55v-3.67a3.68 3.68 0 0 1 .35-1.75 2 2 0 0 1 1.7-1.12 1.53 1.53 0 0 1 1.56 1.07M80.31 26.07v-.71c-.54 0-1.24-.28-1.24-1.55V17h1.45v-1.08h-1.45v-2.31h-1.35a2.76 2.76 0 0 1-2.58 2.66V17h1.33v6.88c0 1.58.6 2.21 2.3 2.21zM53.52 13v10.7c0 1.27.7 1.54 1.25 1.54v.83h-5.22v-.83c.54 0 1.24-.27 1.24-1.54V13h-1.27c-1.51 0-2.07.39-2.07 1.55h-.89v-3h11.09v3h-.86c0-1.18-.53-1.55-2-1.55h-1.27M19.68 13v10.7c0 1.27.69 1.54 1.24 1.54v.83h-5.21v-.83c.53 0 1.24-.27 1.24-1.54v-9.78c0-1.27-.69-1.55-1.24-1.55v-.82h6.48c4 0 4.89 2.12 4.89 3.77a3.55 3.55 0 0 1-3.18 3.49c2 .12 3.12 5.21 4.55 7.08a1.81 1.81 0 0 0 1.24.7h.06v.84h-1.54a3.59 3.59 0 0 1-2.78-1.2c-1.69-2.32-2.34-7.1-4.4-7.25h-.18v-.87H21c2.55 0 3-1.42 3-2.57 0-1.34-.48-2.56-2.81-2.56h-1.51M61.22 13.71a1.42 1.42 0 0 1-2.82 0 1.43 1.43 0 0 1 2.82 0M62.48 26.07v-.71c-.55 0-1.24-.28-1.24-1.55v-7.9H57.4v.7c.53 0 1.24.28 1.24 1.53v5.67c0 1.27-.71 1.55-1.24 1.55v.71zM30.06 26.07v-7.93c0-1.26-.71-1.53-1.24-1.53v-.7h3.84v7.9c0 1.27.69 1.54 1.24 1.54v.72zM32.68 13.71a1.42 1.42 0 0 1-2.81 0 1.42 1.42 0 0 1 2.81 0"/></g></svg>